<svg width="747" height="455" viewBox="0 0 747 455" fill="none" xmlns="http://www.w3.org/2000/svg">
<path d="M689.758 451.07H357.317C355.75 451.07 354.201 450.993 352.674 450.843H150.082C126.037 450.843 106.544 430.722 106.544 405.902V395.633C106.544 365.888 83.1843 341.776 54.3695 341.776H54.369C24.8304 341.776 0.884155 317.056 0.884155 286.567V286.564C0.884155 256.072 24.8304 231.354 54.369 231.354H63.1311C91.9469 231.354 115.306 207.242 115.306 177.497C115.306 152.676 134.799 132.555 158.844 132.555H216.501C202.061 123.68 192.277 106.541 192.277 86.8516V86.8511C192.277 58.0494 213.21 34.7007 239.033 34.7007H567.258C590.455 34.7007 609.261 55.6786 609.261 81.5548C609.261 112.565 631.801 137.704 659.603 137.704H668.057C696.558 137.704 719.663 163.473 719.663 195.262C719.663 227.051 696.558 252.821 668.057 252.821C640.255 252.821 617.72 277.96 617.72 308.969V319.675C617.72 334.242 611.758 347.256 602.406 355.848H689.758C716.045 355.848 737.353 377.166 737.353 403.459C737.353 429.754 716.045 451.07 689.758 451.07V451.07ZM125.832 321.966C122.583 321.966 119.951 324.548 119.951 327.735V331.396C119.951 334.583 122.583 337.165 125.832 337.165L166.169 337.15H190.298V336.224H190.145C190.145 336.224 187.791 335.162 187.791 329.538C187.791 325.073 190.145 322.906 190.145 322.906H190.063C190.112 322.904 190.138 322.904 190.138 322.904L190.298 322.901V321.981H188.169C188.084 321.971 187.997 321.966 187.909 321.966H178.993C182.242 321.966 184.876 319.919 184.876 317.392V314.486C184.876 312.103 182.537 310.148 179.548 309.929H190.804V309.19H190.67C190.67 309.19 188.59 308.342 188.59 303.847C188.59 300.28 190.67 298.551 190.67 298.551H190.595C190.64 298.549 190.663 298.549 190.663 298.549L190.804 298.546V297.81H188.924C188.849 297.802 188.772 297.8 188.694 297.8H133.846C130.976 297.8 128.65 299.862 128.65 302.407V305.332C128.65 307.695 130.655 309.643 133.238 309.909H116.89C116.802 309.909 116.715 309.912 116.629 309.919H114.501V310.65L114.66 310.653C114.66 310.653 114.688 310.653 114.739 310.655H114.654C114.654 310.655 117.008 312.372 117.008 315.916C117.008 320.379 114.654 321.222 114.654 321.222H114.501V321.956H138.054L178.993 321.966H125.832ZM557.289 68.0259C556.507 68.0259 555.719 68.0505 554.927 68.1005C534.462 69.3881 518.913 87.061 520.196 107.574C521.432 127.295 537.77 142.461 557.22 142.461C557.998 142.461 558.79 142.436 559.578 142.386C580.042 141.099 595.592 123.426 594.309 102.913C593.072 83.1917 576.735 68.0259 557.289 68.0259" fill="#DCE9F8"/>
<path d="M211.271 304.26C210.268 304.257 209.455 303.707 209.457 303.033C209.459 302.359 210.274 301.814 211.277 301.814C212.281 301.817 213.093 302.367 213.091 303.041C213.089 303.717 212.275 304.262 211.271 304.26ZM211.283 299.668C211.994 299.67 212.57 300.026 212.568 300.464C212.567 300.902 211.99 301.255 211.279 301.252C210.567 301.25 209.991 300.894 209.992 300.456C209.993 300.018 210.571 299.665 211.283 299.668V299.668ZM211.285 298.7C209.959 298.698 208.881 300.227 208.876 302.115C208.872 304.006 209.942 305.541 211.268 305.543C212.593 305.546 213.672 304.018 213.676 302.128C213.681 300.237 212.61 298.705 211.285 298.7Z" fill="#4A6CBD"/>
<path d="M205.836 306.255C205.332 307.342 205.068 308.523 205.065 309.722L205.004 334.769C205 336.281 206.235 337.51 207.763 337.515L222.082 337.55C223.609 337.552 224.851 336.331 224.854 334.819L224.916 309.769C224.919 308.573 224.66 307.389 224.162 306.299L205.836 306.255" fill="#663199"/>
<path d="M205.836 306.255C205.332 307.342 205.068 308.523 205.065 309.722L205.004 334.769C205 336.281 206.235 337.51 207.763 337.515L222.082 337.55C223.609 337.552 224.851 336.331 224.854 334.819L224.916 309.769C224.919 308.573 224.66 307.389 224.162 306.299L205.836 306.255" fill="#663199"/>
<path d="M224.917 309.769L224.856 334.819C224.852 336.331 223.609 337.555 222.083 337.55L207.765 337.515C206.235 337.513 205.001 336.281 205.005 334.769L205.067 309.722C205.07 308.526 205.333 307.344 205.837 306.255L224.161 306.302C224.659 307.391 224.92 308.575 224.917 309.769" fill="#F35F52"/>
<path d="M208.8 334.779L208.862 309.732C208.865 308.533 209.129 307.352 209.632 306.265L205.836 306.255C205.332 307.342 205.068 308.523 205.065 309.722L205.004 334.769C205 336.281 206.235 337.51 207.763 337.515L211.56 337.523C210.032 337.52 208.796 336.291 208.8 334.779" fill="#F47374"/>
<path d="M224.917 309.769L224.856 334.819C224.852 336.331 223.609 337.555 222.083 337.55L216.229 337.537C217.771 337.54 219.027 336.316 219.031 334.804L219.092 309.755C219.095 308.561 218.831 307.376 218.33 306.287L224.161 306.302C224.66 307.391 224.92 308.575 224.917 309.769" fill="#B14A40"/>
<path d="M224.162 306.299L205.834 306.255C205.836 305.454 206.494 304.807 207.302 304.809L222.701 304.847C223.51 304.849 224.164 305.498 224.162 306.299" fill="#1B375A"/>
<path d="M224.868 329.874L205.017 329.824L205.009 332.936L224.86 332.985L224.868 329.874Z" fill="#375491"/>
<path d="M187.799 298.19H189.989C189.63 297.946 189.182 297.8 188.695 297.8H133.846C130.976 297.8 128.65 299.862 128.65 302.406V305.332C128.65 307.876 130.976 309.939 133.846 309.939L188.081 309.924L187.799 298.19Z" fill="#82A9DE"/>
<path d="M156.66 297.809C153.916 297.809 151.691 299.782 151.691 302.215V305.523C151.691 307.956 153.916 309.929 156.66 309.929H190.805V309.19H190.664L181.984 308.461L180.229 302.357C180.229 302.357 183.615 298.986 183.837 298.899C184.057 298.812 190.664 298.548 190.664 298.548L190.805 298.546V297.809H156.66Z" fill="#4A6CBD"/>
<path d="M188.591 303.847C188.591 300.28 190.67 298.551 190.67 298.551H157.36C154.839 298.551 152.795 300.362 152.795 302.595V305.143C152.795 307.376 154.839 309.19 157.36 309.19H190.67C190.67 309.19 188.591 308.342 188.591 303.847Z" fill="#F7D99B"/>
<path d="M152.797 305.237C152.797 305.235 152.797 305.235 152.797 305.235C152.797 305.235 152.797 305.235 152.797 305.237ZM152.796 305.212C152.796 305.207 152.796 305.205 152.796 305.2C152.796 305.205 152.796 305.207 152.796 305.212ZM152.796 305.192C152.796 305.185 152.796 305.177 152.796 305.17C152.796 305.177 152.796 305.185 152.796 305.192ZM152.796 305.165C152.795 305.157 152.795 305.15 152.795 305.142C152.795 305.15 152.795 305.157 152.796 305.165Z" fill="#4366BA"/>
<path d="M152.929 306.113C152.85 305.832 152.805 305.538 152.797 305.237C152.797 305.235 152.797 305.235 152.797 305.235C152.796 305.227 152.796 305.22 152.796 305.212C152.796 305.207 152.796 305.205 152.796 305.2C152.796 305.197 152.796 305.195 152.796 305.192C152.796 305.185 152.796 305.177 152.796 305.17C152.796 305.168 152.796 305.168 152.796 305.165C152.795 305.158 152.795 305.15 152.795 305.143V302.595C152.795 300.362 154.839 298.551 157.36 298.551H190.67C190.67 298.551 169.874 298.812 160.304 300.573C156.205 301.329 154.052 303.675 152.929 306.113Z" fill="#CACB9A"/>
<path d="M186.896 322.458H189.374C188.969 322.15 188.461 321.966 187.91 321.966H125.832C122.583 321.966 119.951 324.548 119.951 327.734V331.396C119.951 334.582 122.583 337.164 125.832 337.164L187.215 337.142L186.896 322.458" fill="#59C69F"/>
<path d="M151.653 321.981C148.547 321.981 146.029 324.451 146.029 327.495V331.635C146.029 334.679 148.547 337.149 151.653 337.149H190.298V336.224H190.138L180.314 335.311L178.328 327.672C178.328 327.672 182.161 323.451 182.411 323.341C182.661 323.234 190.138 322.903 190.138 322.903L190.298 322.901V321.981H151.653" fill="#43927A"/>
<path d="M187.792 329.538C187.792 325.073 190.146 322.906 190.146 322.906H152.444C149.591 322.906 147.279 325.175 147.279 327.973V331.157C147.279 333.955 149.591 336.224 152.444 336.224H190.146C190.146 336.224 187.792 335.162 187.792 329.538" fill="#F7D99B"/>
<path d="M147.279 331.199V331.197V331.199ZM147.279 331.182C147.279 331.179 147.279 331.176 147.279 331.176C147.279 331.176 147.279 331.179 147.279 331.182Z" fill="#3C8777"/>
<path d="M147.429 332.373C147.336 332.003 147.284 331.615 147.279 331.217C147.279 331.212 147.279 331.204 147.279 331.199V331.197C147.279 331.192 147.279 331.187 147.279 331.182C147.279 331.179 147.279 331.177 147.279 331.177C147.279 331.169 147.279 331.164 147.279 331.157V327.973C147.279 325.175 149.591 322.906 152.444 322.906H190.146C190.146 322.906 166.608 323.234 155.777 325.438C151.138 326.384 148.701 329.321 147.429 332.373Z" fill="#CACB9A"/>
<path d="M117.905 310.297H115.426C115.831 310.056 116.339 309.909 116.89 309.909H178.993C182.242 309.909 184.876 311.958 184.876 314.486V317.391C184.876 319.918 182.242 321.966 178.993 321.966L117.585 321.951L117.905 310.297" fill="#F35F52"/>
<path d="M153.162 309.919C156.269 309.919 158.788 311.879 158.788 314.294V317.58C158.788 319.998 156.269 321.956 153.162 321.956H114.501V321.222H114.661L124.489 320.498L126.476 314.436C126.476 314.436 122.642 311.085 122.392 311.001C122.141 310.914 114.661 310.652 114.661 310.652L114.501 310.65V309.919H153.162" fill="#B14A40"/>
<path d="M117.009 315.916C117.009 312.371 114.654 310.655 114.654 310.655H152.37C155.224 310.655 157.538 312.453 157.538 314.675V317.202C157.538 319.421 155.224 321.222 152.37 321.222H114.654C114.654 321.222 117.009 320.379 117.009 315.916" fill="#F7D99B"/>
<path d="M157.537 317.249C157.537 317.249 157.537 317.249 157.537 317.247C157.537 317.249 157.537 317.249 157.537 317.249ZM157.537 317.234V317.232V317.234ZM157.537 317.219V317.216V317.219Z" fill="#91433C"/>
<path d="M157.387 318.167C156.115 315.744 153.677 313.414 149.036 312.665C138.2 310.914 114.654 310.655 114.654 310.655H152.37C155.224 310.655 157.538 312.453 157.538 314.675V317.202C157.538 317.207 157.537 317.212 157.537 317.217V317.219C157.537 317.224 157.537 317.227 157.537 317.232V317.234C157.537 317.239 157.537 317.244 157.537 317.247C157.537 317.249 157.537 317.249 157.537 317.249C157.532 317.565 157.48 317.871 157.387 318.167" fill="#CACB9A"/>
<path d="M320.632 450.229L314.81 449.124L339.967 315.65L345.791 316.754L320.632 450.229Z" fill="#1E4150"/>
<path d="M513.732 450.836H520.735L494.637 315.65L488.817 316.755L513.732 450.836" fill="#1E4150"/>
<path d="M385.518 450.836H392.521L366.424 315.65L360.601 316.755L385.518 450.836" fill="#1E4150"/>
<path d="M449.926 450.836L444.239 450.903L469.261 316.257L475.084 317.361L449.926 450.836" fill="#1E4150"/>
<path d="M424.522 133.586C447.576 136.056 477.416 138.661 507.365 189.504C540.103 245.074 522.87 328.08 497.034 351.147C471.195 374.213 386.806 402.693 315.864 360.054C315.864 360.054 273.031 334.217 295.015 291.332C328.844 225.341 324.064 211.579 339.189 185.716C354.314 159.854 375.585 128.343 424.522 133.586" fill="#F7D99B"/>
<path d="M507.365 189.504C486.922 154.802 466.534 142.574 448.319 137.52C455.365 144.814 462.506 154.197 469.658 166.333C502.396 221.903 485.16 304.909 459.324 327.976C436.41 348.43 367.447 373.136 302.657 348.731C309.319 356.107 315.864 360.054 315.864 360.054C386.805 402.693 471.195 374.213 497.034 351.147C522.87 328.08 540.103 245.074 507.365 189.504" fill="#F3C267"/>
<path d="M104.661 172.971C104.007 178.128 109.375 182.218 114.147 181.897C119.424 181.538 123.9 177.21 124.672 172.024C125.507 166.409 122.135 161.919 116.918 161.509C111.839 161.109 108.59 165.631 110.057 170.193C111.109 173.464 114.094 174.683 115.598 173.78C116.77 173.078 116.699 171.305 115.28 170.991C114.711 170.865 114.125 171.183 113.823 171.618C112.581 171.126 111.399 168.862 112.201 166.422C113.226 163.3 117.169 163.123 119.618 164.579C122.735 166.429 123.225 170.417 122.082 173.596C120.881 176.932 117.605 179.561 114.038 179.815C109.998 180.101 106.442 177.004 106.119 172.976C106.043 172.026 104.778 172.049 104.661 172.971Z" fill="#F47374"/>
<path d="M459.908 0.899611C436.048 0.755814 416.634 12.5279 416.544 27.192C416.5 34.5224 421.298 41.1881 429.09 46.0389L419.276 67.5988L439.757 50.9152C445.689 52.8421 452.436 53.9541 459.592 53.9956C483.456 54.1362 502.873 42.3641 502.959 27.7032C503.045 13.0424 483.769 1.04021 459.908 0.899611Z" fill="#F7D99B"/>
<path d="M443.38 29.9727C445.5 38.0177 453.736 42.8181 461.776 40.6974C469.819 38.5766 474.618 30.3352 472.497 22.2933C470.377 14.2483 462.141 9.44486 454.101 11.5656C446.062 13.6864 441.259 21.9277 443.38 29.9727" fill="#F3C267"/>
<path d="M466.332 26.3877C467.463 30.6866 464.898 35.0928 460.6 36.2271C456.299 37.3613 451.897 34.7951 450.763 30.4931L466.332 26.3877Z" fill="#EBEBE9"/>
<path d="M213.603 209.07L279.485 208.575C280.989 208.563 282.198 207.334 282.188 205.829L281.857 161.773C281.845 160.268 280.616 159.056 279.112 159.069L213.231 159.564C211.727 159.574 210.516 160.803 210.527 162.308L210.858 206.366C210.869 207.871 212.098 209.08 213.603 209.07" fill="#F35F52"/>
<path d="M279.838 183.576L301.108 205.257L274.867 200.359L279.838 183.576Z" fill="#F35F52"/>
<path d="M260.647 180.519L254.243 180.404C254.243 180.404 246.178 174.379 245.93 172.25C245.683 170.121 247.006 165.614 245.756 165.046C244.505 164.482 241.854 164.034 240.18 166.855C238.964 168.902 239.976 176.372 239.225 176.872C238.753 177.185 235.072 177.223 232.384 177.208C230.614 177.198 228.989 178.17 228.16 179.733L228.157 179.738C227.597 180.795 227.852 182.098 228.769 182.864L230.197 184.058L229.073 185.553C228.237 186.665 228.454 188.242 229.561 189.088L230.688 189.946L229.916 190.827C228.922 191.959 229.131 193.705 230.365 194.568L231.367 195.272L231.218 195.548C230.592 196.702 230.95 198.143 232.043 198.866L233.05 199.533L250.1 199.834C251.697 199.864 253.283 199.565 254.76 198.959L260.776 198.073C261.423 197.978 261.9 197.424 261.903 196.77L261.942 181.842C261.942 181.121 261.366 180.534 260.647 180.519" fill="white"/>
<path d="M350.501 218.048L344.575 235.831L362.637 228.724L350.501 218.048Z" fill="#F68480"/>
<path d="M369.12 165.131C367.917 165.181 364.617 166.28 359.792 175.369C353.632 186.976 344.627 222.04 344.627 222.04L371.505 232.017L374.957 224.699L380.644 168.357C380.644 168.357 369.454 165.116 369.12 165.131Z" fill="#14293F"/>
<path d="M404.648 160.076C396.963 160.088 377.944 162.323 369.121 165.135C369.121 165.135 362.636 220.69 374.957 262.905C377.716 272.355 372.676 302.081 372.676 302.081L452.319 301.034C452.319 301.034 442.885 229.172 446.437 217.566C449.992 205.959 450.076 165.507 450.076 165.507C450.076 165.507 449.531 165.423 432.184 162.432C424.09 161.039 412.857 160.065 404.648 160.076" fill="#1B3659"/>
<path d="M413.931 405.195C413.931 405.195 412.167 425.468 408.93 431.083C405.69 436.697 409.097 446.239 409.27 447.55C409.438 448.858 416.088 450.731 426.66 449.607C437.232 448.485 437.062 446.052 436.208 442.122C435.356 438.192 429.73 433.14 429.39 429.399C429.049 425.655 432.63 412.182 432.63 412.182L413.931 405.195" fill="#F68D82"/>
<path d="M381.662 285.347C381.662 285.347 326.684 282.305 314.408 289.715C302.132 297.128 316.629 312.349 316.629 312.349C316.629 312.349 361.387 331.746 436.317 336.058C454.06 337.08 455.59 289.937 452.272 286.036C448.956 282.136 381.662 285.347 381.662 285.347" fill="#38816A"/>
<path d="M427.981 451.182C438.865 450.025 437.521 444.694 436.642 440.647C436.093 438.115 432.97 435.127 431.11 432.301C430.138 433.075 428.553 434.438 423.825 435.831C418.915 437.276 412.187 434.416 407.899 432.622C406.372 438.294 406.302 445.525 406.445 446.622C406.622 447.97 417.094 452.338 427.981 451.182" fill="#375491"/>
<path d="M421.97 324.555C419.775 341.124 408.9 423.61 408.9 423.61L434.133 426.727C434.133 426.727 465.165 319.068 463.574 302.6C461.981 286.133 450.366 284.748 450.366 284.748C450.366 284.748 427.785 280.695 421.97 324.555" fill="#43927A"/>
<path d="M397.796 89.9841C397.796 89.9841 406.18 81.1432 412.926 91.9004C412.926 91.9004 418.118 88.9824 421.765 94.1786C421.765 94.1786 431.15 91.3533 433.428 105.39C433.428 105.39 438.258 104.478 438.895 110.222C439.534 115.965 436.617 119.792 436.617 119.792C436.617 119.792 439.329 121.829 438.098 127.11C437.049 131.599 433.338 132.28 433.338 132.28C433.338 132.28 432.334 139.848 429.055 142.126C425.776 144.404 421.307 143.313 421.307 143.313C421.307 143.313 420.124 147.412 416.295 147.05C412.466 146.685 407.731 143.038 403.445 144.679C399.162 146.32 388.043 144.586 388.043 144.586C388.043 144.586 375.561 139.028 379.294 126.265C379.294 126.265 372.736 120.339 378.478 113.23C378.478 113.23 374.285 102.108 382.579 95.545C390.871 88.9824 397.796 89.9841 397.796 89.9841" fill="#1B3659"/>
<path d="M399.215 150.013L397.699 161.276C397.699 161.276 394.3 177.502 398.671 180.63C403.044 183.758 417.272 160.814 417.272 160.814L415.77 132.276L399.215 150.013" fill="#F68D82"/>
<path d="M416.255 141.524C412.642 151.257 404.038 157.241 397.928 159.563L399.214 150.014L415.77 132.276L416.255 141.524" fill="#F35F52"/>
<path d="M405.66 102.292C396.784 99.2362 387.322 105.136 385.969 114.289C385.38 118.265 384.848 123.269 384.748 128.738C384.509 141.892 391.316 154.695 397.29 154.695C403.261 154.695 419.764 146.18 420.361 127.504C420.73 115.976 414.974 105.502 405.66 102.292" fill="#F68D82"/>
<path d="M415.96 128.981C415.96 131.882 417.886 134.235 420.257 134.235C422.629 134.235 424.552 131.882 424.552 128.981C424.552 126.077 422.629 123.727 420.257 123.727C417.886 123.727 415.96 126.077 415.96 128.981Z" fill="#F68D82"/>
<path d="M379.787 95.7494C373.621 100.639 371.456 108.066 374.958 112.339C378.463 116.612 386.301 116.114 392.467 111.227C398.637 106.337 400.798 98.9106 397.297 94.6374C393.795 90.3642 385.954 90.8624 379.787 95.7494Z" fill="#1B3659"/>
<path d="M450.946 171.682C443.501 168.895 439.858 235.78 438.853 263.312C425.665 264.576 402.682 263.322 396.96 262.892C394.267 262.69 388.062 260.424 385.383 260.076C382.639 259.718 380.154 259.531 378.806 259.765C378.311 259.852 364.565 265.454 363.39 266.683C361.931 268.208 357.988 272.051 358.653 273.712C359.318 275.377 366.236 269.081 366.236 269.081L369.615 267.19C365.409 271.29 357.382 276.685 358.537 278.65C359.667 280.568 366.907 275.091 372.064 271.359C367.638 275.344 362.14 282.473 363.408 283.585C364.544 284.585 370.8 276.329 377.484 273.951C379.96 273.071 382.43 275.511 384.381 275.804C385.813 276.021 388.02 276.483 389.425 276.085L396.665 274.041C399.129 274.262 399.192 275.715 401.682 276.245C404.573 276.857 409.313 277.503 412.994 278.399C434.191 283.563 441.26 285.958 447.748 285.956C467.403 285.944 468.545 178.262 450.946 171.682" fill="#F68D82"/>
<path d="M465.077 234.475C466.47 206.276 466.265 171.519 450.41 165.589C444.152 163.251 433.123 177.318 435.107 235.047C443.573 235.744 456 236.306 465.077 234.475Z" fill="#1B3659"/>
<path d="M376.359 222.358H377.977L402.278 281.887L400.603 281.633L376.359 222.358" fill="#F68480"/>
<path d="M340.141 422.536C340.141 422.536 342.342 429.573 338.4 434.227C334.456 438.881 318.073 443.448 315.924 445.968C313.773 448.488 313.935 450.634 313.935 450.634L359.916 449.373L359.417 435.53L357.298 425.583L340.141 422.536" fill="#F68D82"/>
<path d="M335.538 436.548C335.538 436.548 347.353 441.311 353.06 438.493C358.767 435.672 358.596 434.888 360.247 435.941C361.898 436.993 362.49 449.97 362.49 449.97L310.786 451.485C307.188 451.403 305.368 448.761 308.292 446.5C310.296 444.948 312.612 443.911 313.93 443.159C317.973 440.846 335.538 436.548 335.538 436.548" fill="#375491"/>
<path d="M341.882 298.337C338.328 290.882 330.246 281.176 316.024 287.021C302.461 292.598 298.82 306.302 303.1 320.334C307.38 334.368 335.553 416.862 336.535 428.202L359.029 428.351C359.029 428.351 354.94 363.032 353.938 347.244C352.973 332.052 348.034 311.242 341.882 298.337Z" fill="#43927A"/>
<path d="M305.366 222.358H380.561C382.551 222.358 384.343 223.559 385.098 225.402L408.249 281.886H449.705C450.865 281.886 451.804 282.827 451.804 283.986C451.804 285.143 450.865 286.083 449.705 286.083H331.721C328.477 286.083 325.534 284.177 324.206 281.217L300.893 229.271C299.436 226.027 301.809 222.358 305.366 222.358Z" fill="#F35F52"/>
<path d="M345.848 255.251C346.358 257.788 348.569 259.485 350.792 259.039C353.013 258.596 354.401 256.179 353.893 253.641C353.386 251.104 351.173 249.408 348.952 249.853C346.731 250.296 345.341 252.714 345.848 255.251Z" fill="white"/>
<path d="M557.223 142.459C537.775 142.459 521.435 127.294 520.201 107.573C518.918 87.0583 534.464 69.3853 554.932 68.0982C555.722 68.0492 556.512 68.0229 557.291 68.0229C576.735 68.0229 593.075 83.1895 594.313 102.911C595.596 123.424 580.046 141.098 559.582 142.385C558.792 142.435 558.002 142.459 557.223 142.459Z" fill="#C4DAF2"/>
<path d="M531.011 104.512V105.566H517.324V104.512H531.011Z" fill="#1E4150"/>
<path d="M597.27 104.511V105.565H583.583V104.511H597.27Z" fill="#1E4150"/>
<path d="M557.724 79.2181H556.672V65.5002H557.724V79.2181Z" fill="#1E4150"/>
<path d="M557.724 145.366H556.672V131.647H557.724V145.366Z" fill="#1E4150"/>
<path d="M558.388 105.244C558.388 105.87 557.879 106.379 557.254 106.379C556.628 106.379 556.119 105.87 556.119 105.244C556.119 104.615 556.628 104.106 557.254 104.106C557.879 104.106 558.388 104.615 558.388 105.244Z" fill="#1E4150"/>
<path d="M557.255 105.749C557.124 105.749 556.997 105.7 556.898 105.601L536.537 85.1957C536.339 84.9979 536.339 84.6766 536.537 84.4788C536.735 84.2775 537.056 84.2775 537.254 84.4788L557.611 104.884C557.809 105.082 557.809 105.403 557.611 105.601C557.512 105.7 557.385 105.749 557.255 105.749" fill="#1E4150"/>
<path d="M563.801 125.866C563.715 125.824 563.648 125.749 563.615 125.652L557.034 105.729C556.97 105.533 557.077 105.326 557.27 105.262C557.463 105.197 557.67 105.301 557.734 105.497L564.315 125.42C564.38 125.614 564.276 125.823 564.08 125.887C563.983 125.919 563.883 125.909 563.801 125.866Z" fill="#1E4150"/>
<path d="M628.435 184.874L631.4 180.039L626.687 178.127L623.726 182.962L628.435 184.874ZM616.427 189.187L619.742 183.803L617.084 182.724C616.5 182.487 616.218 181.824 616.455 181.241C616.693 180.659 617.354 180.378 617.938 180.614L621.007 181.859L623.968 177.024L621.124 175.871C620.544 175.635 620.262 174.971 620.5 174.388C620.733 173.806 621.398 173.525 621.982 173.761L625.233 175.08L628.673 169.543C628.963 169.072 629.555 168.881 630.066 169.089L630.562 169.29C631.214 169.555 631.472 170.34 631.106 170.94L627.903 176.164L632.616 178.076L636.06 172.539C636.35 172.069 636.938 171.877 637.45 172.085L637.994 172.305C638.646 172.569 638.904 173.355 638.538 173.954L635.339 179.179L637.998 180.258C638.582 180.495 638.864 181.159 638.626 181.741C638.389 182.324 637.724 182.604 637.144 182.368L634.074 181.123L631.158 185.976L634.002 187.13C634.582 187.366 634.864 188.029 634.626 188.612C634.389 189.194 633.728 189.475 633.144 189.239L629.893 187.92L626.377 193.631C626.087 194.104 625.499 194.297 624.983 194.089L624.403 193.853C623.75 193.589 623.493 192.801 623.863 192.202L627.174 186.818L622.461 184.906L618.949 190.616C618.655 191.089 618.063 191.283 617.551 191.074L616.971 190.839C616.319 190.574 616.061 189.787 616.427 189.187" fill="#1B3659"/>
<path d="M325.7 42.73L329.087 35.0788L324.709 27.9499C324.212 27.1375 324.861 26.1069 325.808 26.2036L334.126 27.0629L339.554 20.6966C340.17 19.9699 341.352 20.2683 341.554 21.1995L343.305 29.3812L351.037 32.5726C351.918 32.9374 351.999 34.1532 351.175 34.6312L343.941 38.8284L343.294 47.1704C343.22 48.1209 342.087 48.574 341.38 47.9357L335.151 42.3487L327.021 44.3133C326.095 44.5371 325.316 43.6004 325.7 42.73" fill="#F47374"/>
<path d="M571.158 42.7222L573.696 36.986L570.411 31.6382C570.038 31.0295 570.523 30.2565 571.236 30.3274L577.478 30.9735L581.544 26.1971C582.007 25.6519 582.896 25.8759 583.045 26.5743L584.359 32.71L590.161 35.1039C590.822 35.3802 590.882 36.2914 590.266 36.6499L584.837 39.7981L584.352 46.0534C584.296 46.7667 583.448 47.1065 582.918 46.6285L578.248 42.4384L572.147 43.9098C571.453 44.0778 570.866 43.3758 571.158 42.7222" fill="#F3C267"/>
<path d="M545.929 206.668L545.523 201.915L541.383 199.552C540.911 199.283 540.949 198.59 541.453 198.379L545.848 196.527L546.813 191.856C546.926 191.323 547.595 191.149 547.951 191.56L551.07 195.168L555.81 194.644C556.349 194.584 556.722 195.17 556.44 195.635L553.974 199.717L555.94 204.064C556.162 204.559 555.722 205.096 555.193 204.972L550.548 203.887L547.021 207.098C546.619 207.464 545.974 207.21 545.929 206.668" fill="#F47374"/>
<path d="M165.767 136.786L167.631 132.579L165.222 128.657C164.948 128.211 165.305 127.644 165.826 127.699L170.403 128.172L173.387 124.667C173.726 124.269 174.376 124.433 174.486 124.945L175.451 129.445L179.704 131.201C180.188 131.4 180.233 132.07 179.78 132.333L175.799 134.642L175.444 139.229C175.403 139.753 174.781 140.002 174.391 139.651L170.966 136.579L166.494 137.659C165.984 137.781 165.555 137.266 165.767 136.786" fill="#F3C267"/>
<path d="M310.028 129.172L311.891 124.965L309.483 121.045C309.207 120.597 309.565 120.03 310.085 120.082L314.663 120.555L317.648 117.052C317.986 116.654 318.637 116.819 318.747 117.331L319.712 121.831L323.964 123.587C324.449 123.786 324.494 124.455 324.039 124.719L320.06 127.027L319.704 131.617C319.665 132.139 319.04 132.388 318.652 132.037L315.226 128.963L310.754 130.045C310.244 130.167 309.814 129.652 310.028 129.172" fill="#59C69F"/>
<path d="M238.204 61.0062L245.589 59.9328L248.625 71.6312L259.617 71.3967L263.321 79.7778L267.563 77.9037L262.61 66.6923L252.191 66.9141L249.033 54.7465L237.921 56.358L238.204 61.0062" fill="#59C69F"/>
<path d="M222.366 256.937L227.955 251.99L236.907 260.106L245.969 253.88L253.661 258.86L256.18 254.965L245.895 248.306L237.305 254.206L227.993 245.761L219.582 253.206L222.366 256.937" fill="#1B3659"/>
<path d="M151.575 256.952L155.769 250.109L149.099 247.403L144.905 254.246L151.575 256.952ZM134.579 263.057L139.27 255.437L135.503 253.908C134.679 253.574 134.282 252.634 134.616 251.811C134.95 250.985 135.89 250.589 136.714 250.923L141.058 252.684L145.251 245.841L141.228 244.209C140.403 243.875 140.006 242.935 140.34 242.112C140.675 241.286 141.614 240.89 142.438 241.224L147.038 243.089L151.908 235.254C152.322 234.587 153.155 234.316 153.881 234.612L154.583 234.896C155.505 235.271 155.871 236.383 155.352 237.231L150.822 244.624L157.492 247.331L162.362 239.495C162.776 238.828 163.609 238.557 164.335 238.851L165.102 239.162C166.023 239.537 166.389 240.649 165.87 241.497L161.34 248.893L165.107 250.42C165.931 250.753 166.328 251.694 165.994 252.517C165.66 253.343 164.72 253.738 163.896 253.405L159.552 251.644L155.423 258.512L159.446 260.144C160.271 260.48 160.668 261.417 160.334 262.243C159.999 263.067 159.06 263.465 158.236 263.129L153.636 261.263L148.661 269.345C148.249 270.014 147.413 270.288 146.685 269.994L145.863 269.661C144.94 269.285 144.575 268.171 145.097 267.323L149.788 259.703L143.118 256.997L138.143 265.079C137.731 265.748 136.896 266.022 136.167 265.726L135.346 265.395C134.423 265.019 134.057 263.905 134.579 263.057" fill="#59C69F"/>
<path d="M560.66 359.459C560.182 355.243 559.616 350.935 557.659 347.174C555.283 342.599 551.106 339.301 547.457 335.666C540.637 328.875 535.389 320.508 532.239 311.406C529.805 304.366 528.59 296.866 525.233 290.219C523.184 286.16 520.391 282.531 518.06 278.625C512.562 269.394 509.565 258.486 502.104 250.76C500.668 260.128 503.508 270.068 509.665 277.257C511.504 279.399 513.634 281.332 515.035 283.784C517.576 288.239 517.344 293.672 517.643 298.794C518.203 308.421 520.914 317.916 525.522 326.378C530.418 335.37 537.484 343.378 540.099 353.278C542.063 360.698 541.478 369.022 545.662 375.452C546.114 376.148 546.634 376.847 546.741 377.673C546.805 378.136 546.734 378.606 546.659 379.066C546.567 379.663 546.474 380.263 546.378 380.86C545.43 386.932 544.443 394.658 549.663 399.202C553.276 402.354 557.93 402.424 560.528 398.24C563.143 394.026 562.912 387.862 562.719 383.121C562.395 375.225 561.55 367.308 560.66 359.459" fill="#43927A"/>
<path d="M570.056 354.574C568.027 347.545 564.874 340.848 563.295 333.704C561.767 326.774 561.753 319.61 561.749 312.511C561.742 304.732 561.735 296.954 561.731 289.175C561.727 284.334 561.724 279.464 560.924 274.691C559.203 264.415 553.864 254.912 552.958 244.535C552.566 240.045 553.02 235.507 552.529 231.03C552.245 228.473 551.591 225.861 550.405 223.59C549.132 221.15 545.615 221.257 544.458 223.756C541.865 229.378 540.221 235.453 541.269 241.475C541.898 245.087 543.462 248.455 544.633 251.93C549.83 267.402 547.07 284.531 551.096 300.354C552.307 305.13 554.144 309.814 554.359 314.737C554.871 326.523 546.073 337.286 546.877 349.055C547.539 358.704 554.475 366.688 557.385 375.91C559.014 381.071 559.363 386.581 561.109 391.703C562.466 395.685 565.619 400.519 570.518 399.31C575.17 398.163 573.766 394.367 573.559 390.738C572.853 378.467 573.515 366.562 570.056 354.574" fill="#38816A"/>
<path d="M580.699 361.017C580.496 357.363 579.876 353.692 580.387 350.067C580.819 347.008 582.036 344.125 582.908 341.162C584.538 335.608 584.94 329.777 585.334 324.001C586.052 313.501 586.769 303.002 587.486 292.502C588.602 276.179 589.721 259.811 592.771 243.742C593.62 239.279 594.57 234.444 592.565 230.369C592.144 229.511 591.31 228.6 590.401 228.886C589.751 229.091 589.432 229.804 589.195 230.446C582.528 248.575 580.008 268.092 572.563 285.915C570.779 290.186 568.706 294.385 567.782 298.919C566.674 304.367 567.282 309.991 567.425 315.548C567.632 323.516 566.854 331.546 564.657 339.204C563.504 343.212 561.964 347.13 561.332 351.252C560.544 356.393 561.209 361.629 561.701 366.806C562.643 376.758 562.966 386.77 562.658 396.763C562.478 402.638 567.436 402.484 570.719 398.874C573.018 396.35 572.995 393.579 573.784 390.437C576.364 380.121 581.326 372.201 580.699 361.017" fill="#43927A"/>
<path d="M549.728 376.947C545.343 369.9 536.611 365.895 533.808 358.079C533.094 356.092 532.816 353.952 531.944 352.027C530.01 347.754 525.61 345.338 521.284 343.373C520.687 343.099 520.001 343.535 519.994 344.197C519.98 345.246 520.476 346.249 521.348 346.836C524.682 349.08 527.21 352.507 528.339 356.373C529.672 360.952 529.095 365.972 530.755 370.444C532.148 374.198 535.017 377.268 536.364 381.039C537.595 384.484 537.469 388.25 538.045 391.867C538.626 395.481 540.233 399.32 543.549 400.849C555.559 406.384 552.556 381.499 549.728 376.947" fill="#38816A"/>
<path d="M599.67 374.621C599.483 378.027 600.005 381.599 598.672 384.738C597.818 386.748 596.285 388.37 595.026 390.151C590.608 396.407 589.001 405.268 582.212 408.787C581.764 409.021 581.265 409.23 580.766 409.135C580.071 409.006 579.615 408.335 579.334 407.683C577.669 403.802 579.537 399.432 580.645 395.355C580.84 394.641 580.999 393.847 580.66 393.191C580.286 392.469 579.432 392.156 578.851 391.589C577.693 390.462 577.802 388.594 578.032 386.987C578.609 382.979 579.416 379.004 580.454 375.089C581.042 372.87 581.721 370.632 583 368.726C584.408 366.627 586.455 365.059 588.366 363.413C596.823 356.137 603.3 346.57 606.931 336.006C607.714 333.717 608.416 331.302 610.035 329.511C611.657 327.72 614.546 326.799 616.523 328.187C617.927 329.177 612.171 338.438 611.501 339.548C609.582 342.722 609.559 345.483 608.475 349.005C605.819 357.642 600.177 365.371 599.67 374.621" fill="#43927A"/>
<path d="M592.977 378.559C594.232 375.31 595.503 372.02 595.915 368.559C596.373 364.711 595.764 360.778 596.423 356.96C597.266 352.052 600.127 347.734 601.54 342.96C602.564 339.513 602.819 335.891 603.431 332.346C605.187 322.212 609.95 312.309 608.583 302.116C608.286 299.899 607.285 297.315 605.086 296.937C603.092 296.594 601.282 298.417 600.762 300.375C600.246 302.332 600.631 304.397 600.774 306.417C601.171 312.051 599.565 317.804 596.307 322.414C593.177 326.844 588.637 330.177 585.823 334.811C582.369 340.498 581.899 347.438 580.139 353.856C576.631 366.617 567.841 377.751 566.239 390.89C565.604 396.118 566.828 402.474 571.653 404.561C585.603 410.603 589.815 386.735 592.977 378.559" fill="#38816A"/>
<path d="M568.585 394.758H566.356H536.569C534.379 394.758 532.763 396.805 533.272 398.942L544.943 448.172C545.304 449.704 546.669 450.784 548.244 450.784H566.356H568.585H586.701C588.272 450.784 589.637 449.704 590.002 448.172L601.673 398.942C602.179 396.805 600.567 394.758 598.372 394.758H568.585" fill="#F35F52"/>
<path d="M247.342 345.177H91.704V337.137H247.342V345.177" fill="#1E4150"/>
<path d="M196.275 390.815H94.5176V383.78H196.275V390.815Z" fill="#1E4150"/>
<path d="M232.07 450.821V341.157H225.504V450.821H232.07" fill="#1E4150"/>
<path d="M139.222 450.821V341.157H132.657V450.821H139.222Z" fill="#1E4150"/>
<path d="M178.808 450.821L214.174 342.099L208.377 340.214L172.398 450.821H178.808Z" fill="#1E4150"/>
<path d="M79.3237 450.821L109.573 341.861L103.699 340.229L72.9969 450.821H79.3237Z" fill="#1E4150"/>
<path d="M559.579 142.385C539.115 143.673 521.484 128.087 520.198 107.574C518.916 87.0608 534.464 69.3873 554.929 68.101C575.393 66.811 593.024 82.3977 594.31 102.911C595.596 123.425 580.044 141.098 559.579 142.385V142.385ZM557.254 61.7798C533.307 61.7798 513.894 81.2367 513.894 105.242C513.894 129.247 533.307 148.707 557.254 148.707C581.205 148.707 600.618 129.247 600.618 105.242C600.618 81.2367 581.205 61.7798 557.254 61.7798Z" fill="#1E4150"/>
<path d="M746.708 450.149H31.8345V455H746.708V450.149Z" fill="#14293F"/>
<path d="M391.876 140.094L403.437 139.906C403.437 139.906 403.244 144.301 398.159 144.531C391.967 144.813 391.876 140.094 391.876 140.094Z" fill="white"/>
</svg>
